<svg width="44" height="45" viewBox="0 0 44 45" fill="none" xmlns="http://www.w3.org/2000/svg">
<path d="M36.1542 38.9527C32.3386 42.1754 27.3887 44.2207 22.0003 44.2207C13.9823 44.2207 6.94396 39.8035 3.12842 33.3582L4.55687 26.7735L10.8886 25.598C12.3581 30.3417 16.7924 33.8222 22.0003 33.8222C24.5268 33.8222 26.8729 33.023 28.8065 31.6051L34.8909 32.5332L36.1542 38.9527Z" fill="#59C36A"/>
<path d="M36.1539 38.9528L34.8906 32.5332L28.8063 31.6051C26.8727 33.0231 24.5265 33.8223 22 33.8223V44.2207C27.3884 44.2207 32.3383 42.1754 36.1539 38.9528Z" fill="#00A66C"/>
<path d="M10.3984 22.2206C10.3984 23.4065 10.5789 24.5409 10.8883 25.598L3.12813 33.3581C1.19453 30.1097 0 26.294 0 22.2206C0 18.1471 1.19453 14.3316 3.12813 11.0831L9.35627 12.155L10.8883 18.8433C10.5789 19.9002 10.3984 21.0346 10.3984 22.2206Z" fill="#FFDA2D"/>
<path d="M44 22.2207C44 28.9237 40.8977 34.9309 36.1539 38.9527L28.8063 31.6051C30.3015 30.5222 31.5648 29.0784 32.3898 27.377H22C21.278 27.377 20.7109 26.8097 20.7109 26.0879V18.3535C20.7109 17.6316 21.278 17.0645 22 17.0645H42.35C42.9688 17.0645 43.5102 17.5026 43.6133 18.1214C43.8711 19.4621 44 20.8542 44 22.2207Z" fill="#4086F4"/>
<path d="M32.3899 27.377C31.5649 29.0784 30.3015 30.5222 28.8063 31.6051L36.1539 38.9527C40.8977 34.9309 44 28.9238 44 22.2207C44 20.8542 43.8711 19.4621 43.6132 18.1214C43.5102 17.5026 42.9687 17.0645 42.3499 17.0645H22V27.377H32.3899Z" fill="#376AED"/>
<path d="M36.5151 6.36515C36.5409 6.72609 36.3862 7.06133 36.1542 7.31905L30.637 12.8105C30.1988 13.2745 29.4769 13.3261 28.9613 12.9394C26.9244 11.4184 24.5268 10.6191 22.0003 10.6191C16.7924 10.6191 12.3581 14.0995 10.8886 18.8434L3.12842 11.0832C6.94396 4.63789 13.9823 0.220703 22.0003 0.220703C27.1308 0.220703 32.1323 2.11133 36.0511 5.41124C36.3347 5.64336 36.4893 6.00421 36.5151 6.36515Z" fill="#FF7F23"/>
<path d="M28.9609 12.9394C29.4766 13.3262 30.1984 13.2745 30.6366 12.8105L36.1538 7.31905C36.386 7.06133 36.5406 6.72617 36.5148 6.36515C36.4889 6.00413 36.3343 5.64336 36.0507 5.41124C32.132 2.11133 27.1305 0.220703 22 0.220703V10.6191C24.5265 10.6191 26.9241 11.4184 28.9609 12.9394Z" fill="#F03800"/>
</svg>
